<?xml version="1.0" encoding="UTF-8"?><svg id="a" xmlns="http://www.w3.org/2000/svg" viewBox="0 0 3840 2160"><defs><style>.b{fill:#1c3742;}</style></defs><polygon class="b" points="1657.569 924.986 1657.569 1102.564 1920.432 1102.564 1920.432 924.986 2049.636 924.986 2049.636 1398.527 1922.66 1398.527 1922.66 1241.439 1659.797 1241.439 1657.569 1398.527 1528.365 1398.527 1528.365 924.986 1657.569 924.986"/><polygon class="b" points="1495.784 924.986 1495.784 1034.265 1308.661 1034.265 1308.661 1398.527 1181.685 1398.527 1181.685 1034.265 992.334 1034.265 992.334 924.986 1495.784 924.986"/><polygon class="b" points="821.939 924.986 821.939 1307.461 1071.437 1307.461 1071.437 1398.527 692.735 1398.527 692.735 924.986 821.939 924.986"/><path class="b" d="M2886.943,1311.903c17.79,28.891,43.097,57.781,60.887,86.671h142.57c-50.213-81.098-82.471-133.198-82.477-133.208h0c-.008.003-51.903,18.205-120.98,46.537Z"/><path class="b" d="M2844.25,1327.998h-92.448v70.576h-121.687v-473.541l254.326-.095c93.571,5.579,184.494,57.183,201.688,156.715,16.524,95.659-14.236,185.513-103.794,226.946-17.275,6.123-46.298,12.198-71.394,15.965-25.539,3.833-48.204,4.287-66.691,3.434ZM2751.803,1223.273c64.063-3.263,184.165,18.938,202.55-68.183,5.367-25.435,2.877-56.031-9.767-79.039-32.227-58.644-137.877-40.779-192.783-44.015v191.238Z"/><path class="b" d="M169.22,1398.605c54.475-157.899,108.95-315.798,163.426-473.697h160.786c54.548,157.899,109.096,315.798,163.645,473.697H169.22ZM490.002,1305.263l-73.98-236.804h-5.101l-74.627,236.804"/><path class="b" d="M2095.948,1398.605c54.475-157.899,108.95-315.798,163.426-473.697h160.786c54.548,157.899,109.096,315.798,163.645,473.697h-487.856ZM2416.73,1305.263l-73.98-236.804h-5.101l-74.627,236.804"/><path class="b" d="M3136.711,1398.605c54.475-157.899,108.95-315.798,163.426-473.697h160.786c54.548,157.899,109.096,315.798,163.645,473.697h-487.856ZM3457.493,1305.263l-73.98-236.804h-5.101l-74.627,236.804"/></svg>