<?xml version="1.0" encoding="UTF-8"?><svg id="a" xmlns="http://www.w3.org/2000/svg" viewBox="0 0 3840 2160"><defs><style>.b{fill:#e6e2d7;}</style></defs><path class="b" d="M2239.418,151.398l483.492,1366.84,173.456,490.363H943.628l216.806-613.736L1599.698,151.398h639.721M1601.2,1645.026l-3.494,10.694,11.185-.233c3.842,0,160.022,0,311.11,0s307.132,0,311.104,0l11.123.235-3.421-10.678c-.143-.447-27.867-87.115-78.196-244.449l-221.353-691.969-1.779-5.562h-32.317l-1.789,5.543-181.745,563.222c-75.003,232.433-120.275,372.729-120.427,373.198h0M2245.074,143.398h-651.035c-220.574,624.401-441.148,1248.802-661.722,1873.203h1975.365c-220.869-624.401-441.738-1248.802-662.608-1873.203h0ZM1608.812,1647.487c.022-.067,118.208-366.322,302.173-936.423h20.652c182.369,570.099,299.529,936.356,299.551,936.423-.025,0-155.606,0-311.188,0s-311.163,0-311.188,0h0Z"/><path class="b" d="M2880.843,151.398l-287.342,813.408-368.728,1043.795h-639.721l-364.743-1031.134L928.104,151.398h1952.738M2215.578,504.513c-3.967,0-163.292,0-311.107,0s-307.159,0-311.107,0l-11.119-.232,3.42,10.675c.138.431,25.965,81.169,72.851,227.739l226.698,708.679,1.779,5.562h32.317l1.789-5.543,181.703-563.094c74.425-230.641,119.569-370.541,120.455-373.283l3.594-10.74-11.273.237M2892.153,143.398H916.789c220.869,624.401,441.739,1248.802,662.608,1873.203h651.035c220.574-624.401,441.148-1248.802,661.722-1873.203h0ZM2215.659,512.513c-.022.067-118.208,366.322-302.173,936.423h-20.652c-182.369-570.099-299.529-936.356-299.551-936.423.025,0,155.606,0,311.188,0s311.163,0,311.188,0h0Z"/></svg>