<?xml version="1.0" encoding="UTF-8"?><svg id="a" xmlns="http://www.w3.org/2000/svg" viewBox="0 0 3840 2160"><defs><style>.b{fill:none;stroke:#102027;stroke-miterlimit:10;stroke-width:8px;}</style></defs><path class="b" d="M940.082,2016.602c220.574-624.401,441.148-1248.802,661.722-1873.203h651.035c220.869,624.401,441.739,1248.802,662.608,1873.203H940.082ZM2238.953,1647.487c-.022-.067-117.183-366.324-299.552-936.423h-20.652c-183.965,570.101-302.15,936.356-302.173,936.423h0c.05,0,622.326,0,622.376,0h0Z"/><path class="b" d="M2899.918,143.398c-220.574,624.401-441.148,1248.802-661.722,1873.203h-651.035c-220.869-624.401-441.739-1248.802-662.608-1873.203h1975.365ZM1601.047,512.513c.022.067,117.183,366.324,299.552,936.423h20.652c183.965-570.101,302.15-936.356,302.173-936.423h0c-.05,0-622.326,0-622.376,0h0Z"/></svg>